# xmcd
#
# Track frame offsets: 
#        150
#        25740
#        53622
#        73957
#        96902
#        123895
#        139787
#        169730
#        192205
#        215877
#
# Disc length: 3223 seconds
#
# Revision: 1
# Processed by: cddbd v1.5.2PL0 Copyright (c) Steve Scherf et al.
# Submitted via: ExactAudioCopy v0.99pb5
#
DISCID=910c950a
DTITLE=Gerry Rafferty - City to City
DYEAR=1900
DGENRE=
TTITLE0=The Ark
TTITLE1=Baker Street
TTITLE2=Right down the Line
TTITLE3=City to City
TTITLE4=Stealin´ Time
TTITLE5=Mattie´s Rag
TTITLE6=Whatever´s written in your Heart
TTITLE7=Home and Dry
TTITLE8=Island
TTITLE9=Waiting for the Day
EXTD=
EXTT0=
EXTT1=
EXTT2=
EXTT3=
EXTT4=
EXTT5=
EXTT6=
EXTT7=
EXTT8=
EXTT9=
PLAYORDER=
